<svg width="18" height="18" viewBox="0 0 18 18" fill="none" xmlns="http://www.w3.org/2000/svg">
<path fill-rule="evenodd" clip-rule="evenodd" d="M3.69621 6.85L3.71621 7.41L3.76621 9.79V11.87C3.76621 11.94 3.70621 12 3.63621 12H2.49621C2.42621 12 2.36621 11.94 2.36621 11.87L2.44621 8.5L2.36621 5.13C2.36621 5.06 2.42621 5 2.49621 5H4.28621C4.36621 5 4.43621 5.05 4.46621 5.12L6.31621 10.12L8.06621 5.12C8.08621 5.05 8.15621 5 8.23621 5H9.90621C9.97621 5 10.0362 5.06 10.0362 5.13L9.95621 8.5L10.0362 11.87C10.0362 11.94 9.97621 12 9.90621 12H8.61621C8.54621 12 8.48621 11.94 8.48621 11.87V9.79L8.53621 7.39L8.54621 7.07L6.84621 11.88C6.82992 11.937 6.78045 11.9808 6.71943 11.995C6.70554 11.9983 6.69105 12 6.67621 12H5.73621C5.65621 12 5.58621 11.95 5.55621 11.88L3.69621 6.85ZM4.66556 12.3355C4.4876 12.7267 4.09274 13 3.63621 13H2.49621C1.87393 13 1.36621 12.4923 1.36621 11.87V11.8581L1.44593 8.5L1.36621 5.14187V5.13C1.36621 4.50772 1.87392 4 2.49621 4H4.28621C4.78871 4 5.20682 4.3095 5.38536 4.72608L5.39531 4.7493L6.29007 7.16759L7.11669 4.80583C7.28513 4.28448 7.77231 4 8.23621 4H9.90621C10.5285 4 11.0362 4.50772 11.0362 5.13V5.14187L10.9919 7.00702C11.0334 7.00238 11.0755 7 11.1181 7H11.7681V6.13C11.7681 5.50771 12.2758 5 12.8981 5H13.7881C14.4104 5 14.9181 5.50771 14.9181 6.13V7H15.5581C16.1804 7 16.6881 7.50771 16.6881 8.13V8.98C16.6881 9.60229 16.1804 10.11 15.5581 10.11H14.9181V10.97C14.9181 11.5923 14.4104 12.1 13.7881 12.1H12.8981C12.2758 12.1 11.7681 11.5923 11.7681 10.97V10.11H11.1181C11.0764 10.11 11.0351 10.1077 10.9946 10.1033L11.0362 11.8581V11.87C11.0362 12.4923 10.5285 13 9.90621 13H8.61621C8.21574 13 7.86273 12.7897 7.66194 12.474C7.43653 12.8164 7.04886 13 6.67621 13H6.36769L6.34235 13.0724L6.31556 13H5.73621C5.25879 13 4.85754 12.7206 4.66556 12.3355ZM15.5581 8C15.6281 8 15.6881 8.06 15.6881 8.13V8.98C15.6881 9.05 15.6281 9.11 15.5581 9.11H13.9181V10.97C13.9181 11.04 13.8581 11.1 13.7881 11.1H12.8981C12.8281 11.1 12.7681 11.04 12.7681 10.97V9.11H11.1181C11.0481 9.11 10.9881 9.05 10.9881 8.98V8.13C10.9881 8.06 11.0481 8 11.1181 8H12.7681V6.13C12.7681 6.06 12.8281 6 12.8981 6H13.7881C13.8581 6 13.9181 6.06 13.9181 6.13V8H15.5581Z" fill="black"/>
</svg>
