<svg width="44" height="44" viewBox="0 0 44 44" fill="none" xmlns="http://www.w3.org/2000/svg">
<g clip-path="url(#clip0_11_982)">
<path d="M0 8C0 3.58172 3.58172 0 8 0H36C40.4183 0 44 3.58172 44 8V36C44 40.4183 40.4183 44 36 44H8C3.58172 44 0 40.4183 0 36V8Z" fill="black"/>
<path fill-rule="evenodd" clip-rule="evenodd" d="M10.3317 17.67L10.3757 18.902L10.4857 24.138V28.714C10.4857 28.868 10.3537 29 10.1997 29H7.69166C7.53766 29 7.40566 28.868 7.40566 28.714L7.58166 21.3L7.40566 13.886C7.40566 13.732 7.53766 13.6 7.69166 13.6H11.6297C11.8057 13.6 11.9597 13.71 12.0257 13.864L16.0957 24.864L19.9457 13.864C19.9897 13.71 20.1437 13.6 20.3197 13.6H23.9937C24.1477 13.6 24.2797 13.732 24.2797 13.886L24.1037 21.3L24.2797 28.714C24.2797 28.868 24.1477 29 23.9937 29H21.1557C21.0017 29 20.8697 28.868 20.8697 28.714V24.138L20.9797 18.858L21.0017 18.154L17.2617 28.736C17.2177 28.89 17.0637 29 16.8877 29H14.8197C14.6437 29 14.4897 28.89 14.4237 28.736L10.3317 17.67ZM11.4756 23.6467L11.4857 24.1275V28.714C11.4857 29.4203 10.9059 30 10.1997 30H7.69166C6.98538 30 6.40566 29.4203 6.40566 28.714V28.7021L6.58138 21.3L6.40566 13.8979V13.886C6.40566 13.1797 6.98538 12.6 7.69166 12.6H11.6297C12.2282 12.6 12.7303 12.9695 12.9448 13.4701L12.9548 13.4933L16.0695 21.9116L18.9951 13.5527C19.187 12.945 19.7593 12.6 20.3197 12.6H23.9937C24.7 12.6 25.2797 13.1797 25.2797 13.886V13.8979L25.1039 21.3L25.2797 28.7021V28.714C25.2797 29.4203 24.6999 30 23.9937 30H21.1557C20.4494 30 19.8697 29.4203 19.8697 28.714V24.3578L18.2116 29.0492C18.0191 29.6557 17.4474 30 16.8877 30H14.8197C14.2212 30 13.7191 29.6305 13.5045 29.1299L13.4945 29.1066L11.4756 23.6467ZM36.4278 19.2C37.1341 19.2 37.7138 19.7797 37.7138 20.486V22.356C37.7138 23.0623 37.1341 23.642 36.4278 23.642H33.8198V26.734C33.8198 27.4403 33.2401 28.02 32.5338 28.02H30.5758C29.8695 28.02 29.2898 27.4403 29.2898 26.734V23.642H26.6598C25.9535 23.642 25.3738 23.0623 25.3738 22.356V20.486C25.3738 19.7797 25.9535 19.2 26.6598 19.2H29.2898V16.086C29.2898 15.3797 29.8695 14.8 30.5758 14.8H32.5338C33.2401 14.8 33.8198 15.3797 33.8198 16.086V19.2H36.4278ZM36.4278 20.2C36.5818 20.2 36.7138 20.332 36.7138 20.486V22.356C36.7138 22.51 36.5818 22.642 36.4278 22.642H32.8198V26.734C32.8198 26.888 32.6878 27.02 32.5338 27.02H30.5758C30.4218 27.02 30.2898 26.888 30.2898 26.734V22.642H26.6598C26.5058 22.642 26.3738 22.51 26.3738 22.356V20.486C26.3738 20.332 26.5058 20.2 26.6598 20.2H30.2898V16.086C30.2898 15.932 30.4218 15.8 30.5758 15.8H32.5338C32.6878 15.8 32.8198 15.932 32.8198 16.086V20.2H36.4278Z" fill="url(#paint0_linear_11_982)"/>
</g>
<defs>
<linearGradient id="paint0_linear_11_982" x1="22.0597" y1="12.6" x2="22.0597" y2="30" gradientUnits="userSpaceOnUse">
<stop stop-color="#92FF50"/>
<stop offset="1" stop-color="#FF50D8"/>
</linearGradient>
<clipPath id="clip0_11_982">
<rect width="44" height="44" fill="white"/>
</clipPath>
</defs>
</svg>
